<?xml version="1.0" encoding="utf-8"?>
<!-- Generator: Adobe Illustrator 28.2.0, SVG Export Plug-In . SVG Version: 6.00 Build 0)  -->
<svg version="1.1" id="terv" xmlns="http://www.w3.org/2000/svg" xmlns:xlink="http://www.w3.org/1999/xlink" x="0px" y="0px"
	 viewBox="0 0 1717.6 629" style="enable-background:new 0 0 1717.6 629;" xml:space="preserve">
<style type="text/css">
	.st0{fill:#000000;}
	.st1{fill:#38E8E3;}
	.st2{fill:#3AC7F2;}
	.st3{fill:#3A66F2;}
	.st4{fill:#3D38E8;}
</style>
<path class="st0" d="M1248.6,315l-37.1-52.8h-20.8v105h26.8v-52.8l37.1,52.8h20.7v-105h-26.7V315z M487.5,262.2l-33.5,105h29.1
	l4.5-15.1h35.7l5,15.1h27.6l-34.7-105H487.5z M494.6,328.9l10.5-35.7l10.6,35.7H494.6z M1315.2,288.1h25.9v79h26.8v-79h25.9v-26
	h-78.8L1315.2,288.1L1315.2,288.1z M1505.3,323c-1.8-3.8-4.6-7-8.3-9.4c-3.7-2.4-7.1-4.2-10.3-5.4c-3.2-1.1-7.2-2.6-12.2-4.4
	c-7.1-2.1-11.8-4-14.3-5.6c-2.4-1.6-3.7-3.6-3.7-5.9c0-2,0.8-3.7,2.5-5s4.1-2,7.3-2c7.6,0,13.1,3.9,16.3,11.7l22.5-13.2
	c-3.6-7.8-8.8-13.8-15.6-17.9c-6.8-4.1-14.6-6.1-23.4-6.1c-10.4,0-19.1,3-26,9c-6.9,6-10.4,13.9-10.4,23.5c0,9,2.8,16,8.4,21.1
	s13.2,9,22.8,11.8c6.8,2,11.2,3.4,13.2,4.2c4.7,1.9,7.1,4.4,7.1,7.4c0,4.7-4.1,7-12.3,7c-9.9,0-16.8-4.6-20.7-14l-22.9,13.4
	c2.9,8,8,14.4,15.3,19c7.3,4.7,16.5,7,27.6,7c12,0,21.7-2.9,28.9-8.7c7.3-5.8,10.9-13.9,10.9-24.1
	C1508,331.4,1507.1,326.9,1505.3,323z M660,312.9c6.5-5.1,9.8-12,9.8-20.9c0-9.2-3.2-16.5-9.5-21.8c-6.3-5.4-14.7-8-25.2-8h-41.4
	v105H638c10.7,0,19.2-2.8,25.7-8.4s9.6-13,9.6-22.4C673.2,325.9,668.8,318.1,660,312.9z M620.6,286.2h13.8c2.5,0,4.5,0.8,6.2,2.2
	c1.6,1.5,2.4,3.5,2.4,6c0,2.6-0.8,4.6-2.5,6.1c-1.7,1.5-3.7,2.2-6.1,2.2h-13.8L620.6,286.2L620.6,286.2z M643.8,340.7
	c-1.7,1.6-3.9,2.5-6.6,2.5h-16.7v-17.7h16.7c2.7,0,4.9,0.8,6.6,2.4c1.7,1.6,2.5,3.8,2.5,6.5C646.4,336.9,645.5,339,643.8,340.7z
	 M843.3,326.5h36.2v-24.8h-36.2v-14.5h39.9v-25h-66.8v105H884V342h-40.7V326.5z M770.8,262.2h-29L709,345v22.2h71.1v-26h-40.5
	L770.8,262.2z M980.3,307l-26.7-44.9h-26.8v105h26.8v-56.4l25.3,42h2.7l25.5-42.1v56.5h26.7v-105h-26.7L980.3,307z M1107.3,326.5
	h36.2v-24.8h-36.2v-14.5h39.9v-25h-66.8v105h67.5V342h-40.7V326.5z"/>
<g>
	<rect x="209.7" y="209.7" class="st1" width="104.8" height="52.4"/>
	<rect x="262.1" y="262.1" class="st2" width="104.8" height="52.4"/>
	<rect x="209.7" y="314.5" class="st3" width="104.8" height="52.4"/>
	<rect x="209.7" y="366.9" class="st4" width="157.2" height="52.4"/>
</g>
<g>
	<path class="st0" d="M881.9,438.8h5.4l0.3,3.8c0.5-0.6,1-1.1,1.5-1.6c0.6-0.5,1.2-0.9,1.8-1.2c0.9-0.5,1.9-0.9,3-1.2
		c1.1-0.3,2.3-0.4,3.6-0.4c2.2,0,4.2,0.4,5.9,1.3s3.2,2.1,4.3,3.7s2,3.4,2.6,5.6s0.9,4.6,0.9,7.2v0.7c0,2.5-0.3,4.8-0.9,7
		c-0.6,2.2-1.5,4-2.6,5.6s-2.6,2.8-4.3,3.7c-1.7,0.9-3.7,1.4-5.8,1.4c-1.3,0-2.6-0.1-3.7-0.4c-1.2-0.3-2.2-0.7-3.1-1.2
		c-0.6-0.3-1.1-0.7-1.6-1.1c-0.5-0.4-1-0.8-1.4-1.3v16.8h-6V438.8z M904.9,451.1c-0.4-1.5-1-2.9-1.7-4.1c-0.8-1.2-1.8-2.1-3-2.8
		s-2.6-1-4.3-1c-0.9,0-1.8,0.1-2.6,0.3c-0.8,0.2-1.5,0.5-2.1,0.9c-0.7,0.4-1.3,0.9-1.8,1.5c-0.5,0.6-1,1.3-1.4,2v16.8
		c0.4,0.6,0.8,1.2,1.3,1.8s1,1,1.6,1.4c0.7,0.5,1.5,0.8,2.3,1.1c0.8,0.3,1.8,0.4,2.8,0.4c1.7,0,3.1-0.3,4.3-1c1.2-0.7,2.2-1.6,3-2.8
		s1.3-2.5,1.7-4.1s0.6-3.2,0.6-4.9V456C905.4,454.3,905.2,452.7,904.9,451.1z"/>
	<path class="st0" d="M921,448.9c0.7-2.2,1.8-4,3.2-5.6c1.4-1.6,3-2.8,5-3.8c2-0.9,4.2-1.4,6.6-1.4c2.5,0,4.7,0.5,6.7,1.4
		c2,0.9,3.6,2.2,5,3.8c1.4,1.6,2.4,3.5,3.1,5.6c0.7,2.2,1.1,4.5,1.1,7v0.7c0,2.5-0.4,4.8-1.1,7s-1.8,4-3.1,5.6c-1.4,1.6-3,2.8-5,3.7
		s-4.2,1.4-6.6,1.4c-2.5,0-4.7-0.5-6.7-1.4c-2-0.9-3.6-2.1-5-3.7c-1.4-1.6-2.4-3.5-3.2-5.6s-1.1-4.5-1.1-7v-0.7
		C919.9,453.4,920.3,451.1,921,448.9z M926.5,461.6c0.4,1.6,1,2.9,1.9,4.1c0.8,1.2,1.8,2.1,3.1,2.8s2.7,1,4.4,1c1.6,0,3.1-0.3,4.3-1
		s2.3-1.6,3.1-2.8c0.8-1.2,1.4-2.6,1.8-4.1s0.6-3.2,0.6-4.9v-0.7c0-1.7-0.2-3.3-0.6-4.9c-0.4-1.6-1-2.9-1.9-4.1
		c-0.8-1.2-1.9-2.1-3.1-2.8c-1.2-0.7-2.7-1-4.3-1s-3.1,0.3-4.3,1c-1.2,0.7-2.2,1.6-3.1,2.8c-0.8,1.2-1.5,2.6-1.9,4.1
		s-0.6,3.2-0.6,4.9v0.7C925.8,458.4,926.1,460,926.5,461.6z"/>
	<path class="st0" d="M957.1,438.8h5.3l4.1,22.2l0.7,5l0.9-5l5.6-22.2h3.8l5.5,22.2l0.9,5.5l0.9-5.5l3.9-22.2h5.3l-7.4,34.9h-4.7
		l-5.4-21.4l-0.9-5.4l-0.9,5.4l-5.4,21.4h-4.7L957.1,438.8z"/>
	<path class="st0" d="M1009.4,473.1c-2.1-0.8-3.8-2-5.3-3.5s-2.6-3.3-3.4-5.3s-1.2-4.3-1.2-6.7v-1.4c0-2.8,0.5-5.3,1.4-7.6
		c0.9-2.2,2.1-4.1,3.6-5.7c1.5-1.5,3.2-2.7,5.1-3.5c1.9-0.8,3.9-1.2,5.8-1.2c2.5,0,4.7,0.4,6.6,1.3c1.9,0.9,3.4,2.1,4.7,3.6
		c1.2,1.5,2.2,3.4,2.8,5.4c0.6,2.1,0.9,4.3,0.9,6.8v2.7h-24.9v0.2c0.2,1.7,0.5,3.2,1,4.5c0.5,1.3,1.3,2.4,2.2,3.4
		c0.9,1.1,2.1,1.9,3.4,2.5s2.8,0.9,4.4,0.9c2.1,0,4-0.4,5.7-1.3s3-2,4.1-3.4l3.6,2.8c-1.2,1.8-2.9,3.3-5.2,4.7c-2.3,1.4-5.2,2-8.6,2
		C1013.7,474.3,1011.5,473.9,1009.4,473.1z M1012,443.7c-1.1,0.4-2,1.1-2.9,1.9c-0.9,0.9-1.6,1.9-2.2,3.1s-1,2.7-1.2,4.3h18.8v-0.3
		c0-1.1-0.2-2.2-0.6-3.5s-1-2.3-1.7-3.2s-1.6-1.6-2.8-2.2s-2.4-0.8-3.9-0.8C1014.2,443.1,1013.1,443.3,1012,443.7z"/>
	<path class="st0" d="M1066.7,438.4c1.2,0.2,2.1,0.4,2.7,0.6l-0.8,5.8c-1.2-0.3-2.3-0.4-3.3-0.6c-1-0.1-2.1-0.2-3.3-0.2
		c-1.5,0-2.8,0.2-4,0.5c-1.2,0.4-2.2,0.9-3.1,1.6c-0.8,0.6-1.5,1.3-2.1,2.2c-0.6,0.9-1.1,1.8-1.5,2.9v22.4h-6v-34.9h5.7l0.3,4.7
		l0,0.9c1.4-1.9,3.1-3.4,5.1-4.5s4.2-1.7,6.8-1.7C1064.3,438.2,1065.5,438.3,1066.7,438.4z"/>
	<path class="st0" d="M1088.6,473.1c-2.1-0.8-3.8-2-5.3-3.5s-2.6-3.3-3.4-5.3s-1.2-4.3-1.2-6.7v-1.4c0-2.8,0.5-5.3,1.4-7.6
		c0.9-2.2,2.1-4.1,3.6-5.7c1.5-1.5,3.2-2.7,5.1-3.5c1.9-0.8,3.9-1.2,5.8-1.2c2.5,0,4.7,0.4,6.6,1.3c1.9,0.9,3.4,2.1,4.7,3.6
		c1.2,1.5,2.2,3.4,2.8,5.4c0.6,2.1,0.9,4.3,0.9,6.8v2.7h-24.9v0.2c0.2,1.7,0.5,3.2,1,4.5c0.5,1.3,1.3,2.4,2.2,3.4
		c0.9,1.1,2.1,1.9,3.4,2.5s2.8,0.9,4.4,0.9c2.1,0,4-0.4,5.7-1.3s3-2,4.1-3.4l3.6,2.8c-1.2,1.8-2.9,3.3-5.2,4.7c-2.3,1.4-5.2,2-8.6,2
		C1092.9,474.3,1090.7,473.9,1088.6,473.1z M1091.2,443.7c-1.1,0.4-2,1.1-2.9,1.9c-0.9,0.9-1.6,1.9-2.2,3.1s-1,2.7-1.2,4.3h18.8
		v-0.3c0-1.1-0.2-2.2-0.6-3.5s-1-2.3-1.7-3.2s-1.6-1.6-2.8-2.2s-2.4-0.8-3.9-0.8C1093.4,443.1,1092.3,443.3,1091.2,443.7z"/>
	<path class="st0" d="M1119.5,448.8c0.7-2.2,1.6-4.1,2.8-5.6c1.2-1.6,2.7-2.8,4.4-3.7s3.6-1.3,5.8-1.3c2.1,0,3.9,0.3,5.5,1
		c1.6,0.7,2.9,1.7,4,3v-18.1h6v49.5h-5.5l-0.3-3.7c-1.2,1.4-2.5,2.5-4.2,3.2s-3.5,1.1-5.6,1.1c-2.1,0-4-0.5-5.7-1.4
		c-1.7-0.9-3.2-2.1-4.4-3.7s-2.1-3.5-2.8-5.6c-0.7-2.2-1-4.5-1-7V456C1118.5,453.4,1118.8,451,1119.5,448.8z M1125,461.5
		c0.4,1.5,0.9,2.9,1.7,4c0.8,1.2,1.7,2.1,2.9,2.8c1.2,0.7,2.6,1,4.3,1c2,0,3.7-0.5,5-1.4s2.4-2.1,3.1-3.6v-16.2
		c-0.8-1.4-1.8-2.6-3.1-3.5s-2.9-1.4-4.9-1.4c-1.7,0-3.1,0.3-4.3,1c-1.2,0.7-2.2,1.6-2.9,2.8c-0.8,1.2-1.3,2.5-1.7,4.1
		s-0.5,3.2-0.5,4.8v0.7C1124.4,458.3,1124.6,460,1125,461.5z"/>
	<path class="st0" d="M1228,461c-0.2,1.4-0.6,2.7-1,3.9c-0.6,1.6-1.3,3.1-2.3,4.3c-0.9,1.3-2.1,2.3-3.4,3.2c-0.9,0.6-2,1-3.1,1.4
		c-1.1,0.3-2.3,0.5-3.7,0.5c-1.5,0-2.9-0.2-4.1-0.5c-1.2-0.4-2.3-0.9-3.3-1.6c-0.5-0.3-0.9-0.7-1.4-1.1s-0.8-0.9-1.2-1.4l-0.3,4
		h-5.5v-49.5h6v18.4c0.5-0.6,1-1.2,1.6-1.7s1.2-0.9,1.9-1.3c0.9-0.5,1.8-0.8,2.8-1s2.1-0.4,3.4-0.4c1.5,0,2.9,0.2,4.2,0.6
		s2.4,1,3.4,1.7c0.9,0.7,1.8,1.5,2.5,2.5s1.4,2.1,1.9,3.3c0.6,1.4,1,2.9,1.3,4.5c0.3,1.6,0.5,3.4,0.5,5.2v0.7
		C1228.4,458.2,1228.2,459.6,1228,461z M1222.2,452.8c-0.1-1-0.3-2-0.6-2.9c-0.4-1.1-0.9-2.2-1.5-3.1s-1.4-1.7-2.3-2.2
		c-0.6-0.4-1.3-0.7-2.1-0.9s-1.6-0.3-2.6-0.3c-1,0-2,0.1-2.8,0.4s-1.6,0.6-2.3,1.1c-0.7,0.5-1.3,1.1-1.8,1.7c-0.5,0.7-1,1.4-1.3,2.1
		v15.2c0.4,0.8,0.8,1.5,1.4,2.1s1.1,1.2,1.8,1.7s1.5,0.9,2.3,1.1c0.9,0.3,1.8,0.4,2.8,0.4c1,0,1.9-0.1,2.7-0.4s1.5-0.6,2.2-1.1
		c0.9-0.6,1.6-1.4,2.2-2.3s1-2,1.4-3.1c0.3-0.9,0.5-1.8,0.6-2.8s0.2-2,0.2-3V456C1222.4,454.9,1222.3,453.8,1222.2,452.8z"/>
	<path class="st0" d="M1239.3,487.6c-0.8-0.1-1.3-0.2-1.7-0.3l1-4.9c0.5,0,1.1,0.1,1.6,0.1c0.5,0,0.9,0,1.2,0c0.8,0,1.6-0.2,2.2-0.7
		c0.7-0.5,1.3-1,1.8-1.6c0.5-0.6,1-1.3,1.3-1.9s0.7-1.2,0.9-1.6l2.4-4.6l-15-33.2h6.7l9.6,22.5l1.5,4.2l1.6-4.1l9-22.6h6.7
		l-17.7,40.3c-0.4,0.9-0.9,1.9-1.6,2.9c-0.6,1-1.4,1.9-2.3,2.8s-2,1.6-3.2,2.2s-2.6,0.9-4.2,0.9
		C1240.7,487.8,1240,487.7,1239.3,487.6z"/>
	<path class="st0" d="M1323.8,454.6v19.1h-5.9v-46.9h13.8c2.2,0,4.3,0.4,6.2,0.9s3.6,1.5,5.1,2.6c1.4,1.2,2.6,2.6,3.4,4.4
		c0.8,1.8,1.2,3.8,1.2,6.2c0,1.5-0.2,2.9-0.7,4.2c-0.4,1.3-1,2.4-1.8,3.4s-1.7,1.9-2.8,2.7s-2.3,1.5-3.5,2l10,20l0,0.4h-6.3
		l-9.2-19.1H1323.8z M1331.8,449.7c1.3,0,2.6-0.2,3.8-0.6c1.2-0.4,2.2-1,3.1-1.7c0.9-0.8,1.6-1.7,2.1-2.8s0.8-2.3,0.8-3.8
		c0-1.5-0.2-2.8-0.7-3.9c-0.5-1.1-1.2-2.1-2.1-2.9c-0.9-0.8-1.9-1.3-3.1-1.7c-1.2-0.4-2.5-0.6-4-0.6h-7.8v18H1331.8z"/>
	<path class="st0" d="M1368.4,447.4c1.5,0,2.8-0.2,4-0.6c1.1-0.4,2.1-1,2.9-1.7c0.8-0.7,1.4-1.6,1.8-2.5s0.6-2.1,0.6-3.3
		c0-1.4-0.2-2.6-0.5-3.7c-0.4-1-0.9-1.9-1.6-2.6c-0.7-0.7-1.5-1.2-2.6-1.5c-1-0.3-2.2-0.5-3.5-0.5c-1.3,0-2.4,0.2-3.5,0.6
		c-1,0.4-1.9,0.9-2.7,1.6c-0.8,0.7-1.3,1.6-1.7,2.5s-0.6,2.1-0.6,3.3h-6c0-1.8,0.3-3.5,1-5c0.7-1.6,1.7-3,2.9-4.1
		c1.3-1.2,2.8-2.1,4.6-2.8c1.8-0.7,3.7-1,5.9-1c2.1,0,4,0.3,5.8,0.9c1.7,0.6,3.2,1.4,4.5,2.5s2.2,2.5,2.9,4.2s1,3.6,1,5.7
		c0,0.9-0.1,1.8-0.4,2.8s-0.7,1.9-1.3,2.8c-0.6,0.9-1.3,1.8-2.2,2.6c-0.9,0.8-2,1.5-3.3,2c1.5,0.5,2.8,1.1,3.8,1.9
		c1,0.8,1.8,1.7,2.5,2.7c0.6,1,1,2,1.3,3.1c0.2,1.1,0.4,2.2,0.4,3.3c0,2.2-0.4,4.1-1.1,5.8s-1.8,3.1-3.1,4.3
		c-1.3,1.2-2.9,2.1-4.7,2.7c-1.8,0.6-3.8,0.9-5.9,0.9c-2.1,0-4-0.3-5.8-0.9c-1.8-0.6-3.4-1.4-4.7-2.5s-2.4-2.5-3.2-4.1
		s-1.2-3.4-1.2-5.5h6c0,1.2,0.2,2.3,0.6,3.4c0.4,1,1,1.9,1.8,2.6s1.7,1.3,2.8,1.6c1.1,0.4,2.3,0.6,3.7,0.6s2.6-0.2,3.7-0.5
		c1.1-0.4,2-0.9,2.8-1.6s1.4-1.6,1.8-2.7c0.4-1.1,0.6-2.4,0.6-3.9c0-1.5-0.2-2.7-0.7-3.8c-0.5-1.1-1.2-1.9-2-2.7
		c-0.9-0.7-1.9-1.2-3.2-1.6s-2.6-0.5-4.1-0.5h-4.3v-4.8H1368.4z"/>
	<path class="st0" d="M1427.6,457.9v4.9h-6.5v10.9h-6v-10.9h-21.4v-3.5l21-32.5h6.3v31.2H1427.6z M1415,457.9v-23.2l-1,1.8
		l-13.8,21.4H1415z"/>
	<path class="st0" d="M1435.8,426.8h10.9c1.8,0,3.5,0.2,5.2,0.6c1.6,0.4,3.1,0.9,4.5,1.5c1.9,0.9,3.6,2,5.1,3.5
		c1.5,1.4,2.6,3.1,3.5,4.9c0.8,1.6,1.4,3.3,1.8,5.2c0.4,1.9,0.6,3.9,0.7,6.1v3.4c0,2.1-0.2,4-0.6,5.9c-0.4,1.8-1,3.5-1.7,5.1
		c-0.8,1.6-1.8,3.1-2.9,4.4s-2.5,2.4-4,3.4c-1.5,1-3.3,1.7-5.2,2.2c-1.9,0.5-4,0.8-6.3,0.8h-10.9V426.8z M1441.9,468.8h4.8
		c1.7,0,3.3-0.2,4.7-0.6c1.4-0.4,2.7-1,3.8-1.7c1.2-0.8,2.2-1.7,3-2.9c0.8-1.1,1.5-2.4,2-3.8c0.4-1.1,0.8-2.4,1-3.7
		c0.2-1.3,0.3-2.7,0.4-4.1v-3.5c0-1.5-0.1-2.9-0.4-4.2c-0.2-1.3-0.6-2.6-1-3.8c-0.6-1.5-1.4-2.9-2.3-4.1c-1-1.2-2.2-2.2-3.6-2.9
		c-1-0.6-2.1-1-3.4-1.3s-2.6-0.5-4.1-0.5h-4.8V468.8z"/>
	<path class="st0" d="M1500.6,426.8h6.8l-14.6,29.4l-0.1,17.5h-5.5l-0.1-17.5l-14.6-29.4h6.8l10.7,23.6L1500.6,426.8z"/>
</g>
</svg>
