<svg width="210" height="26" viewBox="0 0 210 26" fill="none" xmlns="http://www.w3.org/2000/svg">
<path d="M73.0016 12.7979C74.0469 12.1654 74.5701 11.3035 74.5712 10.2122C74.5712 9.07135 74.0641 8.16938 73.0499 7.50634C72.0357 6.8433 70.6835 6.51261 68.9932 6.51426H62.3287V19.5353H69.452C71.1691 19.5353 72.5455 19.1881 73.5811 18.4937C74.6168 17.7992 75.1319 16.8753 75.1265 15.722C75.1265 14.4174 74.4182 13.4427 73.0016 12.7979ZM66.651 9.48679H68.8725C69.2372 9.47652 69.5926 9.57668 69.8625 9.76581C69.9916 9.8617 70.0928 9.97762 70.1594 10.1059C70.226 10.2342 70.2565 10.3719 70.2489 10.5099C70.2588 10.6505 70.2282 10.791 70.1591 10.9214C70.0901 11.0518 69.9844 11.1687 69.8497 11.2639C69.5794 11.4449 69.2305 11.541 68.8725 11.533H66.651V9.48679ZM70.3938 16.2453C70.252 16.3483 70.0851 16.4284 69.9026 16.481C69.7202 16.5336 69.5259 16.5576 69.3313 16.5517H66.651V14.3604H69.3313C69.7224 14.3483 70.1041 14.4552 70.3938 14.658C70.6575 14.873 70.8045 15.1577 70.8045 15.4535C70.8045 15.7494 70.6575 16.034 70.3938 16.2491V16.2453ZM90.8381 6.5093H86.1697L80.8815 16.7774V19.5304H92.3271V16.3061H85.8075L90.8381 6.5093ZM45.2424 6.5093L39.8561 19.5304H44.5341L45.2521 17.6529H51.0039L51.8088 19.5316H56.2598L50.6674 6.51054L45.2424 6.5093ZM46.3693 14.787L48.0596 10.3598L49.774 14.787H46.3693ZM209.067 14.0566C208.776 13.5781 208.315 13.1728 207.738 12.8871C207.222 12.6156 206.665 12.3921 206.081 12.2212L204.112 11.6743C202.973 11.4131 202.206 11.1824 201.812 10.9824C201.418 10.7823 201.221 10.5392 201.221 10.2532C201.219 10.1329 201.253 10.0139 201.322 9.90602C201.392 9.79817 201.493 9.70461 201.619 9.63312C201.885 9.46777 202.276 9.3851 202.791 9.3851C204.014 9.3851 204.892 9.86874 205.423 10.836L209.045 9.19908C208.521 8.28081 207.645 7.50826 206.534 6.9855C205.394 6.46767 204.09 6.20366 202.767 6.22284C201.092 6.22284 199.697 6.59487 198.581 7.33893C197.465 8.08299 196.903 9.05937 196.894 10.2681C196.894 11.3841 197.345 12.2555 198.246 12.8822C199.148 13.5089 200.371 13.9954 201.917 14.3418C203.008 14.5849 203.714 14.7576 204.035 14.8602C204.795 15.0933 205.175 15.4004 205.176 15.7816C205.176 16.3603 204.516 16.6496 203.196 16.6496C201.603 16.6496 200.492 16.0709 199.864 14.9135L196.162 16.569C196.616 17.5452 197.483 18.3752 198.625 18.9252C199.805 19.5081 201.286 19.7995 203.068 19.7995C204.999 19.7995 206.553 19.4399 207.728 18.7206C208.903 18.0013 209.493 17.0031 209.499 15.7257C209.515 15.152 209.368 14.5825 209.066 14.0578L209.067 14.0566ZM178.481 9.72737H182.667V19.5316H186.989V9.73481H191.175V6.51054H178.497L178.481 9.72737ZM102.515 14.4894H108.335V11.4213H102.507V9.617H108.93V6.51674H98.1851V19.5378H109.051V16.4066H102.507L102.515 14.4894ZM167.757 13.0583L161.793 6.51054H158.431V19.5316H162.754V12.9839L168.723 19.5316H172.055V6.51054H167.757V13.0583ZM124.558 12.0662L120.255 6.51054H115.933V19.5316H120.255V12.5374L124.336 17.7459H124.776L128.876 12.525V19.5316H133.174V6.51054H128.876L124.558 12.0662ZM145.003 14.4844H150.822V11.4213H145.006V9.617H151.429V6.51674H140.684V19.5378H151.55V16.4066H145.006L145.003 14.4844ZM17.3754 0H0.5V6.49938H8.9369V13H0.5V26H25.8123V19.4994H17.3754V13H25.8123V6.49938H17.3754V0Z" fill="#FCF7FF"/>
</svg>
