<svg width="186" height="40" viewBox="0 0 186 40" fill="none" xmlns="http://www.w3.org/2000/svg">
<path d="M148.837 15.1507L143.522 7.58659H140.542V22.6289H144.381V15.0647L149.696 22.6289H152.662V7.58659H148.837V15.1507ZM39.7984 7.58659L34.999 22.6289H39.168L39.8127 20.4656H44.9272L45.6436 22.6289H49.5977L44.6264 7.58659H39.7984ZM40.8156 17.142L42.3198 12.0276L43.8384 17.142H40.8156ZM158.378 11.297H162.089V22.6145H165.928V11.297H169.639V7.57227H158.35L158.378 11.297ZM185.613 16.2968C185.355 15.7524 184.954 15.294 184.424 14.9501C183.894 14.6063 183.406 14.3485 182.948 14.1765C182.49 14.019 181.917 13.8041 181.2 13.5462C180.183 13.2454 179.51 12.9732 179.152 12.7439C178.808 12.5147 178.621 12.2282 178.621 11.8987C178.621 11.6122 178.736 11.3686 178.98 11.1824C179.223 10.9962 179.567 10.8959 180.025 10.8959C181.114 10.8959 181.902 11.4546 182.361 12.572L185.584 10.681C185.068 9.56358 184.323 8.70402 183.349 8.11665C182.375 7.52929 181.257 7.24277 179.997 7.24277C178.507 7.24277 177.26 7.67255 176.272 8.5321C175.283 9.39166 174.782 10.5234 174.782 11.8987C174.782 13.188 175.183 14.1909 175.985 14.9215C176.788 15.6521 177.876 16.2108 179.252 16.612C180.226 16.8985 180.856 17.099 181.143 17.2136C181.816 17.4858 182.16 17.844 182.16 18.2738C182.16 18.9471 181.573 19.2766 180.398 19.2766C178.98 19.2766 177.991 18.6176 177.432 17.2709L174.152 19.1906C174.567 20.3367 175.298 21.2536 176.344 21.9126C177.389 22.5859 178.707 22.9154 180.298 22.9154C182.017 22.9154 183.406 22.4999 184.438 21.669C185.484 20.8381 186 19.6777 186 18.2165C186 17.5002 185.871 16.8555 185.613 16.2968ZM64.5115 14.8499C65.4427 14.1192 65.9154 13.1307 65.9154 11.8557C65.9154 10.5377 65.457 9.49195 64.5544 8.73267C63.6519 7.95907 62.4485 7.58659 60.9442 7.58659H55.013V22.6289H61.3596C62.8926 22.6289 64.1103 22.2277 65.0415 21.4255C65.9728 20.6232 66.4169 19.5631 66.4169 18.2165C66.4025 16.7122 65.7722 15.5948 64.5115 14.8499ZM58.8668 11.0248H60.8439C61.2021 11.0248 61.4886 11.1394 61.7321 11.34C61.9614 11.5549 62.076 11.8414 62.076 12.1996C62.076 12.572 61.9614 12.8586 61.7178 13.0734C61.4743 13.2883 61.1877 13.3886 60.8439 13.3886H58.8668V11.0248ZM62.1906 18.8325C61.947 19.0617 61.6318 19.1906 61.245 19.1906H58.8525V16.6549H61.245C61.6318 16.6549 61.947 16.7695 62.1906 16.9988C62.4341 17.228 62.5487 17.5431 62.5487 17.9299C62.5631 18.2881 62.4341 18.5889 62.1906 18.8325ZM90.7718 16.7982H95.958V13.2454H90.7718V11.1681H96.488V7.58659H86.918V22.6289H96.6026V19.0187H90.7718V16.7982ZM80.3851 7.58659H76.2305L71.5314 19.4485V22.6289H81.7175V18.9041H75.9153L80.3851 7.58659ZM110.399 14.0046L106.574 7.57227H102.734V22.6145H106.574V14.5347L110.198 20.5516H110.585L114.238 14.5204V22.6145H118.064V7.57227H114.238L110.399 14.0046ZM128.594 16.7982H133.78V13.2454H128.594V11.1681H134.31V7.58659H124.74V22.6289H134.41V19.0187H128.579V16.7982H128.594Z" fill="#FCF7FF"/>
<path d="M15.0141 0.0654297H0V7.57224H15.0141V0.0654297Z" fill="#38E8E3"/>
<path d="M22.5209 7.57227H7.50684V15.0791H22.5209V7.57227Z" fill="#3AC7F2"/>
<path d="M15.0141 15.0792H0V22.586H15.0141V15.0792Z" fill="#3A66F2"/>
<path d="M22.5211 22.5861H0V30.0929H22.5211V22.5861Z" fill="#3D38E8"/>
<path d="M96.3024 32.8863H97.076L97.119 33.4307C97.1906 33.3448 97.2623 33.2731 97.3339 33.2015C97.4199 33.1299 97.5058 33.0726 97.5918 33.0296C97.7207 32.958 97.864 32.9007 98.0216 32.8577C98.1792 32.8147 98.3511 32.8004 98.5373 32.8004C98.8525 32.8004 99.139 32.8577 99.3826 32.9866C99.6261 33.1156 99.841 33.2875 99.9986 33.5167C100.156 33.7459 100.285 34.0038 100.371 34.3189C100.457 34.6341 100.5 34.9779 100.5 35.3504V35.4507C100.5 35.8088 100.457 36.1383 100.371 36.4535C100.285 36.7687 100.156 37.0265 99.9986 37.2558C99.841 37.485 99.6261 37.6569 99.3826 37.7858C99.139 37.9148 98.8525 37.9864 98.5517 37.9864C98.3654 37.9864 98.1792 37.9721 98.0216 37.9291C97.8497 37.8861 97.7064 37.8288 97.5775 37.7572C97.4915 37.7142 97.4199 37.6569 97.3482 37.5996C97.2766 37.5423 97.205 37.485 97.1477 37.4133V39.8201H96.2881V32.8863H96.3024ZM99.5975 34.6484C99.5402 34.4335 99.4542 34.233 99.3539 34.0611C99.2393 33.8892 99.0961 33.7602 98.9242 33.6599C98.7522 33.5597 98.5517 33.5167 98.3081 33.5167C98.1792 33.5167 98.0502 33.531 97.9356 33.5597C97.821 33.5883 97.7207 33.6313 97.6348 33.6886C97.5345 33.7459 97.4485 33.8175 97.3769 33.9035C97.3053 33.9894 97.2336 34.0897 97.1763 34.19V36.5968C97.2336 36.6827 97.2909 36.7687 97.3626 36.8546C97.4342 36.9406 97.5058 36.9979 97.5918 37.0552C97.6921 37.1268 97.8067 37.1698 97.9213 37.2128C98.0359 37.2558 98.1792 37.2701 98.3224 37.2701C98.566 37.2701 98.7666 37.2271 98.9385 37.1268C99.1104 37.0265 99.2537 36.8976 99.3683 36.7257C99.4829 36.5538 99.5545 36.3676 99.6118 36.1383C99.6691 35.9091 99.6978 35.6799 99.6978 35.4364V35.3504C99.6691 35.1069 99.6405 34.8777 99.5975 34.6484Z" fill="#FCF7FF"/>
<path d="M101.904 34.3332C102.004 34.018 102.162 33.7601 102.362 33.5309C102.563 33.3017 102.792 33.1298 103.078 32.9865C103.365 32.8576 103.68 32.786 104.024 32.786C104.382 32.786 104.697 32.8576 104.984 32.9865C105.27 33.1155 105.5 33.3017 105.7 33.5309C105.901 33.7601 106.044 34.0323 106.144 34.3332C106.245 34.6484 106.302 34.9779 106.302 35.336V35.4363C106.302 35.7944 106.245 36.1239 106.144 36.4391C106.044 36.7543 105.886 37.0121 105.7 37.2414C105.5 37.4706 105.27 37.6425 104.984 37.7714C104.697 37.9004 104.382 37.972 104.038 37.972C103.68 37.972 103.365 37.9004 103.078 37.7714C102.792 37.6425 102.563 37.4706 102.362 37.2414C102.162 37.0121 102.018 36.7399 101.904 36.4391C101.789 36.1383 101.746 35.7944 101.746 35.4363V35.336C101.746 34.9779 101.803 34.6484 101.904 34.3332ZM102.692 36.1526C102.749 36.3818 102.835 36.568 102.964 36.74C103.078 36.9119 103.222 37.0408 103.408 37.1411C103.594 37.2414 103.795 37.2843 104.038 37.2843C104.268 37.2843 104.482 37.2414 104.654 37.1411C104.826 37.0408 104.984 36.9119 105.098 36.74C105.213 36.568 105.299 36.3675 105.356 36.1526C105.414 35.9377 105.442 35.6942 105.442 35.4506V35.3503C105.442 35.1068 105.414 34.8776 105.356 34.6484C105.299 34.4191 105.213 34.2329 105.084 34.061C104.97 33.8891 104.812 33.7601 104.64 33.6599C104.468 33.5596 104.253 33.5166 104.024 33.5166C103.795 33.5166 103.58 33.5596 103.408 33.6599C103.236 33.7601 103.093 33.8891 102.964 34.061C102.849 34.2329 102.749 34.4335 102.692 34.6484C102.634 34.8632 102.606 35.1068 102.606 35.3503V35.4506C102.591 35.6942 102.634 35.9234 102.692 36.1526Z" fill="#FCF7FF"/>
<path d="M107.075 32.8864H107.835L108.422 36.0667L108.522 36.783L108.651 36.0667L109.453 32.8864H109.998L110.786 36.0667L110.915 36.8546L111.044 36.0667L111.602 32.8864H112.362L111.301 37.8861H110.628L109.855 34.8204L109.726 34.0468L109.597 34.8204L108.823 37.8861H108.15L107.075 32.8864Z" fill="#FCF7FF"/>
<path d="M114.569 37.8001C114.268 37.6855 114.024 37.5136 113.809 37.2987C113.595 37.0838 113.437 36.826 113.322 36.5395C113.208 36.2529 113.15 35.9234 113.15 35.5796V35.3791C113.15 34.9779 113.222 34.6198 113.351 34.2903C113.48 33.9751 113.652 33.7029 113.867 33.4737C114.082 33.2588 114.325 33.0869 114.597 32.9723C114.87 32.8577 115.156 32.8004 115.428 32.8004C115.786 32.8004 116.102 32.8577 116.374 32.9866C116.646 33.1156 116.861 33.2875 117.047 33.5024C117.219 33.7172 117.362 33.9894 117.448 34.276C117.534 34.5768 117.577 34.892 117.577 35.2501V35.6369H114.01V35.6656C114.039 35.9091 114.082 36.124 114.153 36.3102C114.225 36.4965 114.339 36.6541 114.468 36.7973C114.597 36.9549 114.769 37.0695 114.956 37.1555C115.142 37.2414 115.357 37.2844 115.586 37.2844C115.887 37.2844 116.159 37.2271 116.402 37.0982C116.646 36.9692 116.832 36.8117 116.99 36.6111L117.506 37.0122C117.334 37.2701 117.09 37.485 116.761 37.6855C116.431 37.8861 116.016 37.9721 115.529 37.9721C115.185 37.9721 114.87 37.9148 114.569 37.8001ZM114.941 33.5883C114.784 33.6456 114.655 33.7459 114.526 33.8605C114.397 33.9894 114.297 34.1327 114.211 34.3046C114.125 34.4765 114.067 34.6914 114.039 34.9206H116.732V34.8777C116.732 34.7201 116.703 34.5625 116.646 34.3762C116.589 34.19 116.503 34.0467 116.402 33.9178C116.302 33.7889 116.173 33.6886 116.001 33.6026C115.829 33.5167 115.658 33.488 115.443 33.488C115.256 33.5024 115.099 33.531 114.941 33.5883Z" fill="#FCF7FF"/>
<path d="M122.778 32.829C122.95 32.8576 123.079 32.8863 123.165 32.9149L123.05 33.7458C122.878 33.7028 122.72 33.6885 122.577 33.6599C122.434 33.6455 122.276 33.6312 122.104 33.6312C121.89 33.6312 121.703 33.6599 121.531 33.7028C121.359 33.7601 121.216 33.8318 121.087 33.9321C120.973 34.018 120.872 34.1183 120.786 34.2472C120.7 34.3762 120.629 34.5051 120.571 34.6627V37.8717H119.712V32.8719H120.529L120.571 33.5453V33.6742C120.772 33.402 121.016 33.1871 121.302 33.0295C121.589 32.8719 121.904 32.786 122.276 32.786C122.434 32.8003 122.606 32.8146 122.778 32.829Z" fill="#FCF7FF"/>
<path d="M125.915 37.8001C125.615 37.6855 125.371 37.5136 125.156 37.2987C124.941 37.0838 124.784 36.826 124.669 36.5395C124.554 36.2529 124.497 35.9234 124.497 35.5796V35.3791C124.497 34.9779 124.569 34.6198 124.698 34.2903C124.827 33.9751 124.998 33.7029 125.213 33.4737C125.428 33.2588 125.672 33.0869 125.944 32.9723C126.216 32.8577 126.503 32.8004 126.775 32.8004C127.133 32.8004 127.448 32.8577 127.721 32.9866C127.993 33.1156 128.208 33.2875 128.394 33.5024C128.566 33.7172 128.709 33.9894 128.795 34.276C128.881 34.5768 128.924 34.892 128.924 35.2501V35.6369H125.357V35.6656C125.385 35.9091 125.428 36.124 125.5 36.3102C125.572 36.4965 125.686 36.6541 125.815 36.7973C125.944 36.9549 126.116 37.0695 126.302 37.1555C126.488 37.2414 126.703 37.2844 126.933 37.2844C127.233 37.2844 127.506 37.2271 127.749 37.0982C127.993 36.9692 128.179 36.8117 128.337 36.6111L128.852 37.0122C128.68 37.2701 128.437 37.485 128.107 37.6855C127.778 37.8861 127.362 37.9721 126.875 37.9721C126.531 37.9721 126.216 37.9148 125.915 37.8001ZM126.288 33.5883C126.13 33.6456 126.001 33.7459 125.872 33.8605C125.743 33.9894 125.643 34.1327 125.557 34.3046C125.471 34.4765 125.414 34.6914 125.385 34.9206H128.079V34.8777C128.079 34.7201 128.05 34.5625 127.993 34.3762C127.935 34.19 127.849 34.0467 127.749 33.9178C127.649 33.7889 127.52 33.6886 127.348 33.6026C127.176 33.5167 127.004 33.488 126.789 33.488C126.603 33.5024 126.445 33.531 126.288 33.5883Z" fill="#FCF7FF"/>
<path d="M130.342 34.3188C130.442 34.0037 130.571 33.7315 130.743 33.5166C130.915 33.2874 131.129 33.1155 131.373 32.9865C131.617 32.8576 131.889 32.8003 132.204 32.8003C132.505 32.8003 132.763 32.8433 132.992 32.9436C133.221 33.0438 133.407 33.1871 133.565 33.3733V30.7803H134.425V37.8717H133.637L133.594 37.3416C133.422 37.5422 133.235 37.6998 132.992 37.8001C132.748 37.9003 132.49 37.9576 132.19 37.9576C131.889 37.9576 131.617 37.886 131.373 37.7571C131.129 37.6281 130.915 37.4562 130.743 37.227C130.571 36.9978 130.442 36.7256 130.342 36.4248C130.241 36.1096 130.198 35.7801 130.198 35.4219V35.3503C130.198 34.9778 130.241 34.634 130.342 34.3188ZM131.129 36.1382C131.187 36.3531 131.258 36.5537 131.373 36.7113C131.488 36.8832 131.617 37.0121 131.788 37.1124C131.96 37.2127 132.161 37.2557 132.405 37.2557C132.691 37.2557 132.935 37.184 133.121 37.0551C133.307 36.9262 133.465 36.7543 133.565 36.5394V34.2186C133.45 34.018 133.307 33.8461 133.121 33.7172C132.935 33.5882 132.705 33.5166 132.419 33.5166C132.175 33.5166 131.975 33.5596 131.803 33.6599C131.631 33.7601 131.488 33.8891 131.387 34.061C131.273 34.2329 131.201 34.4191 131.144 34.6483C131.086 34.8776 131.072 35.1068 131.072 35.336V35.4363C131.043 35.6798 131.072 35.9234 131.129 36.1382Z" fill="#FCF7FF"/>
<path d="M145.886 36.0667C145.857 36.2673 145.8 36.4535 145.743 36.6254C145.657 36.8546 145.557 37.0695 145.413 37.2414C145.284 37.4277 145.113 37.5709 144.926 37.6999C144.797 37.7858 144.64 37.8431 144.482 37.9004C144.325 37.9434 144.153 37.972 143.952 37.972C143.737 37.972 143.537 37.9434 143.365 37.9004C143.193 37.8431 143.035 37.7715 142.892 37.6712C142.82 37.6282 142.763 37.5709 142.691 37.5136C142.62 37.4563 142.577 37.3847 142.519 37.3131L142.476 37.8861H141.688V30.7947H142.548V33.4307C142.62 33.3448 142.691 33.2588 142.777 33.1872C142.863 33.1155 142.949 33.0582 143.049 33.0009C143.178 32.9293 143.307 32.8863 143.451 32.8577C143.594 32.829 143.751 32.8004 143.938 32.8004C144.153 32.8004 144.353 32.829 144.539 32.8863C144.726 32.9436 144.883 33.0296 145.027 33.1299C145.155 33.2302 145.284 33.3448 145.385 33.488C145.485 33.6313 145.585 33.7889 145.657 33.9608C145.743 34.1613 145.8 34.3762 145.843 34.6054C145.886 34.8347 145.915 35.0925 145.915 35.3504V35.4507C145.943 35.6656 145.915 35.8661 145.886 36.0667ZM145.055 34.892C145.041 34.7487 145.012 34.6054 144.969 34.4765C144.912 34.3189 144.84 34.1613 144.754 34.0324C144.668 33.9035 144.554 33.7889 144.425 33.7172C144.339 33.6599 144.239 33.617 144.124 33.5883C144.009 33.5597 143.895 33.5453 143.751 33.5453C143.608 33.5453 143.465 33.5596 143.35 33.6026C143.236 33.6456 143.121 33.6886 143.021 33.7602C142.921 33.8318 142.835 33.9178 142.763 34.0038C142.691 34.104 142.62 34.2043 142.577 34.3046V36.4821C142.634 36.5968 142.691 36.697 142.777 36.783C142.863 36.869 142.935 36.9549 143.035 37.0265C143.135 37.0982 143.25 37.1555 143.365 37.1841C143.494 37.2271 143.623 37.2414 143.766 37.2414C143.909 37.2414 144.038 37.2271 144.153 37.1841C144.267 37.1411 144.368 37.0982 144.468 37.0265C144.597 36.9406 144.697 36.826 144.783 36.697C144.869 36.5681 144.926 36.4105 144.984 36.2529C145.027 36.124 145.055 35.9951 145.07 35.8518C145.084 35.7085 145.098 35.5653 145.098 35.422V35.3504C145.084 35.1928 145.07 35.0352 145.055 34.892Z" fill="#FCF7FF"/>
<path d="M147.505 39.8773C147.39 39.863 147.318 39.8487 147.261 39.8343L147.404 39.1324C147.476 39.1324 147.562 39.1467 147.634 39.1467C147.705 39.1467 147.763 39.1467 147.806 39.1467C147.92 39.1467 148.035 39.118 148.121 39.0464C148.221 38.9748 148.307 38.9032 148.379 38.8172C148.45 38.7312 148.522 38.631 148.565 38.545C148.608 38.4591 148.665 38.3731 148.694 38.3158L149.038 37.6568L146.889 32.9006H147.849L149.224 36.1239L149.439 36.7256L149.668 36.1382L150.957 32.9006H151.917L149.381 38.6739C149.324 38.8029 149.253 38.9461 149.152 39.0894C149.066 39.2327 148.952 39.3616 148.823 39.4905C148.694 39.6195 148.536 39.7197 148.364 39.8057C148.192 39.8917 147.992 39.9346 147.763 39.9346C147.705 39.906 147.605 39.8917 147.505 39.8773Z" fill="#FCF7FF"/>
<path d="M159.611 35.1498V37.8861H158.766V31.1672H160.743C161.058 31.1672 161.359 31.2245 161.631 31.2961C161.903 31.3677 162.147 31.511 162.362 31.6686C162.562 31.8405 162.734 32.0411 162.849 32.2989C162.963 32.5568 163.021 32.8433 163.021 33.1871C163.021 33.402 162.992 33.6026 162.92 33.7888C162.863 33.9751 162.777 34.1327 162.662 34.2759C162.548 34.4192 162.419 34.5481 162.261 34.6627C162.104 34.7773 161.932 34.8776 161.76 34.9492L163.192 37.8144V37.8717H162.29L160.972 35.1355H159.611V35.1498ZM160.757 34.4478C160.943 34.4478 161.129 34.4192 161.301 34.3619C161.473 34.3046 161.617 34.2186 161.746 34.1183C161.874 34.0037 161.975 33.8748 162.046 33.7172C162.118 33.5596 162.161 33.3877 162.161 33.1728C162.161 32.9579 162.132 32.7717 162.061 32.6141C161.989 32.4565 161.889 32.3133 161.76 32.1986C161.631 32.084 161.488 32.0124 161.316 31.9551C161.144 31.8978 160.958 31.8692 160.743 31.8692H159.625V34.4478H160.757Z" fill="#FCF7FF"/>
<path d="M166 34.1182C166.215 34.1182 166.401 34.0896 166.573 34.0323C166.73 33.975 166.874 33.889 166.988 33.7887C167.103 33.6885 167.189 33.5595 167.246 33.4306C167.304 33.3017 167.332 33.1297 167.332 32.9578C167.332 32.7573 167.304 32.5854 167.261 32.4278C167.203 32.2845 167.132 32.1556 167.031 32.0553C166.931 31.955 166.816 31.8834 166.659 31.8404C166.516 31.7974 166.344 31.7688 166.157 31.7688C165.971 31.7688 165.814 31.7974 165.656 31.8547C165.513 31.912 165.384 31.9837 165.269 32.0839C165.155 32.1842 165.083 32.3132 165.026 32.4421C164.968 32.571 164.94 32.7429 164.94 32.9149H164.08C164.08 32.657 164.123 32.4134 164.223 32.1986C164.324 31.9693 164.467 31.7688 164.639 31.6112C164.825 31.4393 165.04 31.3103 165.298 31.2101C165.556 31.1098 165.828 31.0668 166.143 31.0668C166.444 31.0668 166.716 31.1098 166.974 31.1957C167.218 31.2817 167.432 31.3963 167.619 31.5539C167.805 31.7115 167.934 31.912 168.034 32.1556C168.134 32.3991 168.177 32.6713 168.177 32.9722C168.177 33.1011 168.163 33.23 168.12 33.3733C168.077 33.5165 168.02 33.6455 167.934 33.7744C167.848 33.9033 167.748 34.0323 167.619 34.1469C167.49 34.2615 167.332 34.3618 167.146 34.4334C167.361 34.505 167.547 34.591 167.69 34.7056C167.834 34.8202 167.948 34.9491 168.049 35.0924C168.134 35.2357 168.192 35.3789 168.235 35.5365C168.263 35.6941 168.292 35.8517 168.292 36.0093C168.292 36.3244 168.235 36.5966 168.134 36.8402C168.034 37.0837 167.877 37.2843 167.69 37.4562C167.504 37.6281 167.275 37.757 167.017 37.843C166.759 37.9289 166.473 37.9719 166.172 37.9719C165.871 37.9719 165.599 37.9289 165.341 37.843C165.083 37.757 164.854 37.6424 164.667 37.4848C164.481 37.3273 164.324 37.1267 164.209 36.8975C164.094 36.6683 164.037 36.4104 164.037 36.1095H164.897C164.897 36.2815 164.925 36.439 164.983 36.5966C165.04 36.7399 165.126 36.8688 165.241 36.9691C165.355 37.0694 165.484 37.1553 165.642 37.1983C165.799 37.2556 165.971 37.2843 166.172 37.2843C166.372 37.2843 166.544 37.2556 166.702 37.2126C166.859 37.1553 166.988 37.0837 167.103 36.9834C167.218 36.8831 167.304 36.7542 167.361 36.5966C167.418 36.439 167.447 36.2528 167.447 36.0379C167.447 35.823 167.418 35.6511 167.347 35.4935C167.275 35.3359 167.175 35.2213 167.06 35.1067C166.931 35.0064 166.788 34.9348 166.602 34.8775C166.415 34.8202 166.229 34.8059 166.014 34.8059H165.398V34.1182H166Z" fill="#FCF7FF"/>
<path d="M174.482 35.6226V36.3245H173.55V37.8861H172.691V36.3245H169.625V35.8231L172.634 31.1672H173.536V35.6369H174.482V35.6226ZM172.677 35.6226V32.2989L172.533 32.5568L170.556 35.6226H172.677Z" fill="#FCF7FF"/>
<path d="M175.656 31.1672H177.218C177.476 31.1672 177.719 31.1958 177.963 31.2531C178.192 31.3104 178.407 31.3821 178.607 31.468C178.88 31.597 179.123 31.7545 179.338 31.9694C179.553 32.17 179.711 32.4135 179.84 32.6714C179.954 32.9006 180.04 33.1442 180.097 33.4164C180.155 33.6885 180.183 33.9751 180.198 34.2902V34.7773C180.198 35.0782 180.169 35.3504 180.112 35.6226C180.054 35.8804 179.968 36.124 179.868 36.3532C179.754 36.5824 179.61 36.7973 179.453 36.9835C179.295 37.1698 179.095 37.3273 178.88 37.4706C178.665 37.6139 178.407 37.7141 178.135 37.7858C177.863 37.8574 177.562 37.9004 177.232 37.9004H175.671V31.1672H175.656ZM176.53 37.1841H177.218C177.461 37.1841 177.691 37.1554 177.891 37.0981C178.092 37.0408 178.278 36.9549 178.436 36.8546C178.607 36.74 178.751 36.611 178.865 36.4391C178.98 36.2816 179.08 36.0953 179.152 35.8947C179.209 35.7372 179.266 35.5509 179.295 35.3647C179.324 35.1785 179.338 34.9779 179.352 34.7773V34.2759C179.352 34.061 179.338 33.8605 179.295 33.6742C179.266 33.488 179.209 33.3017 179.152 33.1298C179.066 32.9149 178.951 32.7144 178.822 32.5425C178.679 32.3706 178.507 32.2273 178.307 32.127C178.163 32.0411 178.006 31.9838 177.82 31.9408C177.633 31.8978 177.447 31.8692 177.232 31.8692H176.544V37.1841H176.53Z" fill="#FCF7FF"/>
<path d="M184.94 31.1672H185.914L183.822 35.379L183.808 37.8861H183.02L183.006 35.379L180.914 31.1672H181.888L183.421 34.5481L184.94 31.1672Z" fill="#FCF7FF"/>
</svg>
